<?xml version="1.0" encoding="utf-8"?>
<svg viewBox="22.791 13.041 600.125 95.9" xmlns="http://www.w3.org/2000/svg">
  <defs>
    <style type="text/css">
	.st0{fill:#3F4043;}
	.st1{fill:url(#SVGID_1_);}
	.st2{fill:url(#SVGID_2_);}
	.st3{fill:#29ABE2;}
</style>
  </defs>
  <linearGradient id="SVGID_1_" gradientUnits="userSpaceOnUse" x1="146.673" y1="371.5346" x2="212.4312" y2="303.7874" gradientTransform="matrix(1, 0, 0, -1, -0.70881, 391.641266)">
    <stop offset="0.21" style="stop-color:#F15A24"/>
    <stop offset="0.6841" style="stop-color:#FBB03B"/>
  </linearGradient>
  <linearGradient id="SVGID_2_" gradientUnits="userSpaceOnUse" x1="96.1181" y1="289.7902" x2="30.3595" y2="357.5373" gradientTransform="matrix(1, 0, 0, -1, -0.70881, 391.641266)">
    <stop offset="0.21" style="stop-color:#ED1E79"/>
    <stop offset="0.8929" style="stop-color:#522785"/>
  </linearGradient>
  <path class="st0" d="M 620.591 41.541 C 621.591 41.541 622.291 41.941 622.691 42.641 C 622.891 43.041 623.191 43.841 622.391 44.941 L 611.091 62.241 L 611.091 74.041 C 611.091 75.641 610.091 76.641 608.591 76.641 L 606.991 76.641 C 605.391 76.641 604.491 75.641 604.491 74.041 L 604.491 62.241 L 593.091 44.941 C 592.391 43.741 592.591 42.941 592.791 42.541 C 593.091 41.841 593.891 41.441 594.891 41.441 L 596.991 41.441 C 598.291 41.441 599.091 41.941 599.691 43.041 L 607.791 56.141 L 615.991 43.041 C 616.591 42.041 617.491 41.541 618.691 41.541 L 620.591 41.541 Z M 345.491 41.541 L 327.691 41.541 C 326.091 41.541 325.191 42.541 325.191 44.141 L 325.191 74.141 C 325.191 75.741 326.191 76.741 327.691 76.741 L 329.291 76.741 C 330.891 76.741 331.791 75.741 331.791 74.141 L 331.791 62.341 L 343.391 62.341 C 344.991 62.341 345.891 61.241 345.891 59.741 L 345.891 59.041 C 345.891 57.441 344.891 56.441 343.391 56.441 L 331.791 56.441 L 331.791 47.241 L 345.491 47.241 C 347.091 47.241 347.991 46.241 347.991 44.641 L 347.991 43.941 C 348.091 42.441 347.091 41.541 345.491 41.541 Z M 276.591 41.541 L 267.491 41.541 C 265.891 41.541 264.991 42.541 264.991 44.141 L 264.991 74.141 C 264.991 75.741 265.991 76.741 267.491 76.741 L 276.691 76.741 C 287.291 76.741 294.591 69.541 294.591 59.241 C 294.491 48.741 287.191 41.541 276.591 41.541 Z M 287.691 59.041 C 287.691 65.941 283.091 70.741 276.491 70.741 L 271.591 70.741 L 271.591 47.241 L 276.491 47.241 C 283.091 47.341 287.691 52.141 287.691 59.041 Z M 388.291 41.541 L 389.891 41.541 C 391.491 41.541 392.391 42.541 392.391 44.141 L 392.391 74.141 C 392.391 75.741 391.391 76.741 389.891 76.741 L 388.291 76.741 C 386.691 76.741 385.791 75.741 385.791 74.141 L 385.791 44.141 C 385.691 42.441 386.691 41.541 388.291 41.541 Z M 455.291 41.541 L 453.691 41.541 C 452.091 41.541 451.191 42.541 451.191 44.141 L 451.191 64.141 L 435.691 43.041 C 434.991 42.041 434.091 41.641 432.991 41.641 L 432.291 41.641 C 430.691 41.641 429.791 42.641 429.791 44.241 L 429.791 74.241 C 429.791 75.841 430.791 76.841 432.291 76.841 L 433.891 76.841 C 435.491 76.841 436.391 75.841 436.391 74.241 L 436.391 54.141 L 451.891 75.341 C 452.591 76.341 453.491 76.741 454.591 76.741 L 455.291 76.741 C 456.891 76.741 457.791 75.741 457.791 74.141 L 457.791 44.141 C 457.791 42.441 456.791 41.541 455.291 41.541 Z M 497.591 41.541 L 499.191 41.541 C 500.691 41.541 501.691 42.541 501.691 44.141 L 501.691 74.141 C 501.691 75.741 500.691 76.741 499.191 76.741 L 497.591 76.741 C 495.991 76.741 495.091 75.741 495.091 74.141 L 495.091 44.141 C 495.091 42.441 495.991 41.541 497.591 41.541 Z M 562.391 41.541 L 538.891 41.541 C 537.391 41.541 536.391 42.541 536.391 44.141 L 536.391 44.841 C 536.391 46.341 537.391 47.441 538.891 47.441 L 547.291 47.441 L 547.291 74.141 C 547.291 75.741 548.291 76.741 549.791 76.741 L 551.391 76.741 C 552.991 76.741 553.891 75.741 553.891 74.141 L 553.891 47.441 L 562.291 47.441 C 563.891 47.441 564.791 46.441 564.791 44.841 L 564.791 44.141 C 564.991 42.441 563.991 41.541 562.391 41.541 Z"/>
  <path class="st1" d="M 170.991 13.041 C 160.091 13.041 148.191 18.841 135.591 30.341 C 129.591 35.741 124.391 41.541 120.591 46.241 C 120.591 46.241 126.691 53.141 133.391 60.541 C 136.991 56.041 142.291 49.941 148.291 44.441 C 159.491 34.241 166.791 32.141 170.991 32.141 C 186.691 32.141 199.491 45.041 199.491 61.041 C 199.491 76.841 186.791 89.741 170.991 89.941 C 170.291 89.941 169.291 89.841 168.291 89.641 C 172.891 91.741 177.791 93.241 182.491 93.241 C 211.291 93.241 216.891 73.741 217.291 72.341 C 218.091 68.741 218.591 65.041 218.591 61.141 C 218.391 34.541 197.191 13.041 170.991 13.041 Z"/>
  <path class="st2" d="M 70.391 108.941 C 81.291 108.941 93.191 103.141 105.791 91.641 C 111.791 86.241 116.991 80.441 120.791 75.741 C 120.791 75.741 114.691 68.841 107.991 61.441 C 104.391 65.941 99.091 72.041 93.091 77.541 C 81.891 87.741 74.591 89.841 70.391 89.841 C 54.691 89.841 41.891 76.941 41.891 60.941 C 41.891 45.141 54.591 32.241 70.391 32.041 C 71.091 32.041 72.091 32.141 73.091 32.341 C 68.491 30.241 63.591 28.741 58.891 28.741 C 30.091 28.741 24.491 48.241 24.091 49.641 C 23.291 53.241 22.791 56.941 22.791 60.841 C 22.891 87.341 44.191 108.941 70.391 108.941 Z"/>
  <path class="st3" d="M 92.291 44.841 C 89.191 41.841 73.791 29.641 58.991 29.241 C 32.691 28.641 24.991 47.241 24.391 49.741 C 29.391 28.741 48.191 13.141 70.491 13.041 C 88.691 13.041 106.991 30.441 120.591 46.241 C 120.591 46.241 120.591 46.141 120.691 46.141 C 120.691 46.141 126.791 53.041 133.491 60.441 C 133.491 60.441 141.091 69.241 149.191 77.041 C 152.291 80.041 167.691 92.141 182.391 92.541 C 209.391 93.241 216.791 73.541 217.291 72.041 C 212.291 93.141 193.491 108.841 171.191 108.941 C 152.991 108.941 134.691 91.441 120.991 75.741 C 120.991 75.741 120.891 75.841 120.891 75.841 C 120.891 75.841 114.791 68.941 108.091 61.541 C 107.991 61.441 100.391 52.641 92.291 44.841 Z M 24.291 49.841 C 24.291 49.841 24.291 49.741 24.291 49.641 C 24.391 49.741 24.391 49.841 24.291 49.841 Z"/>
</svg>